<svg xmlns="http://www.w3.org/2000/svg" viewBox="0 0 180 50" fill="none">
  <rect width="180" height="50" rx="6" fill="#005BAC"/>
  <path d="M16 14h6.5c3 0 5.2 1.2 5.2 3.8 0 1.4-.7 2.5-2 3.1 1.6.5 2.5 1.7 2.5 3.4 0 2.8-2.4 4.2-5.5 4.2H16V14zm3.2 2.6v4h2.7c1.2 0 1.8-.6 1.8-1.7 0-1.3-.7-2.3-2.4-2.3h-2.1zm0 6.2v4.6h3.5c1.3 0 2.2-.7 2.2-2s-.9-2.6-2.9-2.6h-2.8zM38 14v12.8h3V14h-3zM46.5 14v12.8h3V14h-3z" fill="white"/>
  <text x="72" y="30" font-family="Arial,Helvetica,sans-serif" font-size="16" font-weight="700" fill="white" letter-spacing="3">DANONE</text>
  <circle cx="58" cy="25" r="12" fill="white" opacity="0.15"/>
</svg>
